<svg id="Ebene_1" data-name="Ebene 1" xmlns="http://www.w3.org/2000/svg" viewBox="0 0 120.2 120.2"><defs><style>.cls-1{fill:none;stroke:#1a1a1a;stroke-linecap:round;stroke-linejoin:round;stroke-width:7px;}.cls-2{fill:#1a1a1a;}</style></defs><title>Info</title><circle class="cls-1" cx="60.1" cy="60.1" r="56.6"/><path class="cls-2" d="M61.17,97.4q-6.6,0-6.6-6.6V54.1c-4.4,0-6.6-2.1-6.5-6.3,0-4.4,2.2-6.6,6.5-6.7l6.5-.1c4.3.1,6.5,2.3,6.5,6.5V90.8C67.67,95.2,65.47,97.4,61.17,97.4Zm-3.6-72.9a5.56,5.56,0,0,0-2.4,2.4,6.48,6.48,0,0,0-.9,3.2,6.2,6.2,0,0,0,.9,3.2,6.89,6.89,0,0,0,2.4,2.4,6.09,6.09,0,0,0,3.2.8,7.22,7.22,0,0,0,3.2-.8,6.38,6.38,0,0,0,2.3-8.8,5.56,5.56,0,0,0-2.4-2.4,6,6,0,0,0-3.1-.8A6.33,6.33,0,0,0,57.57,24.5Z" transform="translate(-0.67 -0.8)"/></svg>