<?xml version="1.0" encoding="UTF-8"?>
<!DOCTYPE svg PUBLIC "-//W3C//DTD SVG 1.1//EN" "http://www.w3.org/Graphics/SVG/1.1/DTD/svg11.dtd">
<!-- Creator: CorelDRAW 2019 (64-Bit) -->
<svg xmlns="http://www.w3.org/2000/svg" xml:space="preserve" width="109.755mm" height="41.1931mm" version="1.1" style="shape-rendering:geometricPrecision; text-rendering:geometricPrecision; image-rendering:optimizeQuality; fill-rule:evenodd; clip-rule:evenodd"
viewBox="0 0 8023.22 3011.25"
 xmlns:xlink="http://www.w3.org/1999/xlink"
 xmlns:xodm="http://www.corel.com/coreldraw/odm/2003">
 <defs>
  <style type="text/css">
   <![CDATA[
    .fil1 {fill:#299BD7;fill-rule:nonzero}
    .fil0 {fill:#2E4179;fill-rule:nonzero}
    .fil2 {fill:#323B7A;fill-rule:nonzero}
    .fil3 {fill:#303463;fill-rule:nonzero}
   ]]>
  </style>
 </defs>
 <g id="Ebene_x0020_1">
  <metadata id="CorelCorpID_0Corel-Layer"/>
  <path class="fil0" d="M1044.41 2505.39l-1.84 0 -110.25 222.35 151 0 -38.91 -222.35zm-184.37 361.33l-63.37 113.74c-2.63,4.71 -7.6,7.62 -12.98,7.62l-159 0c-11.27,0 -18.44,-12.05 -13.06,-21.94l362.79 -668.84c2.6,-4.8 7.62,-7.78 13.07,-7.78l177.44 0c7,0 13.03,4.86 14.53,11.69l146.36 668.83c2.02,9.27 -5.03,18.04 -14.52,18.04l-163.14 0c-7.02,0 -13.08,-4.9 -14.54,-11.75l-23.44 -109.61 -250.15 0z"/>
  <path class="fil0" d="M4120.31 2505.4l-1.85 0 -110.25 222.35 151.02 0 -38.92 -222.35zm-184.37 361.32l-63.38 113.74c-2.62,4.71 -7.59,7.63 -12.98,7.63l-158.99 -0.01c-11.28,0 -18.44,-12.05 -13.07,-21.94l362.8 -668.84c2.6,-4.79 7.62,-7.78 13.06,-7.78l177.46 0c6.97,0 13.03,4.87 14.52,11.69l146.36 668.83c2.02,9.28 -5.03,18.05 -14.53,18.05l-163.12 0c-7.02,0 -13.09,-4.9 -14.55,-11.76l-23.43 -109.61 -250.15 0z"/>
  <path class="fil0" d="M2079.51 2464.81l-15.11 95.24 187.36 0c9.14,0 16.1,8.15 14.69,17.16l-18.03 115.08c-1.94,12.41 -12.62,21.54 -25.18,21.54l-161.25 0c-12.51,0 -23.17,9.08 -25.18,21.43l-15.99 99.02 198.5 0c9.13,0 16.1,8.14 14.69,17.16l-18.01 115.09c-1.94,12.4 -12.62,21.54 -25.19,21.54l-358.26 0c-9.14,0 -16.11,-8.15 -14.69,-17.18l104.14 -659.87c1.96,-12.39 12.64,-21.51 25.18,-21.51l358.31 0c9.12,0 16.1,8.15 14.68,17.16l-18.03 115.1c-1.94,12.4 -12.62,21.53 -25.18,21.53l-172.31 0c-12.53,0 -23.2,9.12 -25.17,21.5z"/>
  <path class="fil0" d="M7930.02 2598.04c8.01,0 14.31,6.25 14.85,13.81l0 2.12c-0.04,0.59 -0.12,1.18 -0.23,1.78 -17.9,94.38 -41.07,176.39 -112.55,258.39 -83.41,95.43 -192.67,137.12 -309.43,137.12 -219.59,0 -348.38,-149.16 -314.11,-368.73 36.15,-227 213.15,-376.15 438.23,-376.15 138.51,0 237.37,60.33 279.95,181.82 2.69,7.55 -1.17,15.88 -8.66,18.81l-154.78 61.02c-8.07,3.14 -17.08,-1.08 -19.65,-9.27 -18.02,-58.08 -61.89,-95.81 -129.27,-95.81 -119.56,0 -200.16,113.96 -216.78,220.51 -17.66,108.39 30.53,218.64 150.1,218.64 78.73,0 145.41,-40.76 164.84,-121.37l-130.79 0c-9.13,0 -16.15,-8.2 -14.63,-17.24l18.37 -112.94c1.17,-7.2 7.37,-12.49 14.63,-12.49l329.9 0z"/>
  <path class="fil0" d="M4968.08 2559.13l39.2 -248.1c1.97,-12.38 12.63,-21.51 25.18,-21.51l142.42 0c9.13,0 16.1,8.17 14.68,17.19l-104.14 659.86c-1.95,12.39 -12.62,21.52 -25.17,21.52l-142.41 0c-9.12,0 -16.1,-8.17 -14.68,-17.19l42.66 -269.09 -262.19 0 -41.98 264.79c-1.97,12.38 -12.63,21.49 -25.17,21.49l-142.44 0c-9.13,0 -16.11,-8.16 -14.69,-17.19l104.15 -659.87c1.95,-12.39 12.62,-21.51 25.16,-21.51l142.42 0c9.12,0 16.11,8.17 14.68,17.19l-39.89 252.41 262.19 0z"/>
  <path class="fil0" d="M5415.82 2834.29l200.34 0c9.13,0 16.11,8.14 14.69,17.16l-18.03 115.09c-1.94,12.4 -12.62,21.54 -25.18,21.54l-360.12 0c-9.12,0 -16.11,-8.16 -14.67,-17.19l104.14 -659.87c1.95,-12.38 12.62,-21.51 25.16,-21.51l142.42 0c9.13,0 16.12,8.17 14.69,17.19l-83.44 527.58z"/>
  <path class="fil0" d="M2439.7 2289.53l151.54 0c5.13,0 9.92,2.66 12.63,7.02l260.6 420.08 1.86 0 64.23 -405.61c1.96,-12.38 12.62,-21.49 25.17,-21.49l142.43 0c9.12,0 16.11,8.17 14.68,17.19l-104.15 659.86c-1.96,12.39 -12.64,21.51 -25.18,21.51l-151.52 0c-5.15,0 -9.93,-2.66 -12.64,-7.03l-260.6 -421 -1.86 0 -64.23 406.52c-1.95,12.38 -12.64,21.51 -25.16,21.51l-142.42 0c-9.14,0 -16.11,-8.15 -14.69,-17.18l104.14 -659.87c1.95,-12.39 12.63,-21.51 25.18,-21.51z"/>
  <path class="fil0" d="M6506.19 2289.53l151.54 0c5.15,0 9.92,2.66 12.63,7.03l260.59 420.08 1.87 0 64.23 -405.61c1.99,-12.38 12.63,-21.5 25.15,-21.5l142.49 0c9.12,0 16.02,8.17 14.62,17.19l-104.12 659.87c-1.99,12.38 -12.64,21.51 -25.15,21.51l-151.49 0c-5.15,0 -9.95,-2.67 -12.64,-7.04l-260.67 -420.99 -1.84 0 -64.24 406.52c-1.95,12.38 -12.62,21.51 -25.18,21.51l-142.42 0c-9.14,0 -16.11,-8.16 -14.69,-17.19l104.15 -659.87c1.95,-12.38 12.63,-21.51 25.17,-21.51z"/>
  <path class="fil0" d="M240.22 2602.67l17.59 0c59.29,0 127.51,-11.17 139.89,-87.09 12.41,-75.95 -27.15,-86.86 -90.51,-87.08l-25.72 0c-7.76,0 -14.36,5.62 -15.58,13.28l-25.67 160.88zm311.71 385.42l-186.63 0c-7.94,0 -15.17,-4.55 -18.6,-11.71l-123.17 -256.97 -1.84 0 -39.87 251.28c-1.58,10.02 -10.23,17.4 -20.37,17.4l-146.58 0c-9.12,0 -16.11,-8.17 -14.68,-17.18l104.79 -663.97c1.59,-10.02 10.23,-17.41 20.37,-17.41l253.84 0c138.04,0 232.54,65.78 209.38,214.95 -15.75,96.35 -82.45,179.73 -184.36,197.34l160.43 263.69c6.03,9.91 -1.11,22.59 -12.7,22.59z"/>
  <path class="fil0" d="M1555.84 2988.08l-142.42 0c-9.14,0 -16.11,-8.17 -14.69,-17.19l83.45 -527.58 -132.72 0c-9.12,0 -16.1,-8.14 -14.69,-17.16l18.03 -115.09c1.94,-12.4 12.63,-21.54 25.18,-21.54l442.58 0c9.12,0 16.1,8.15 14.69,17.16l-18.03 115.1c-1.94,12.4 -12.62,21.53 -25.19,21.53l-128.28 0 -82.76 523.27c-1.95,12.38 -12.63,21.5 -25.16,21.5z"/>
  <path class="fil0" d="M6379.56 2289.53c9.13,0 16.1,8.17 14.68,17.19l-59.35 375.64c-13.9,89.86 -31.5,178.8 -112.11,246.44 -67.64,57.44 -162.14,77.82 -243.66,77.82 -81.52,0 -170.49,-20.39 -219.57,-77.82 -58.37,-67.64 -48.19,-156.58 -34.29,-246.44l58.68 -371.32c1.95,-12.38 12.63,-21.51 25.17,-21.51l142.45 0c9.12,0 16.1,8.15 14.69,17.16l-54.77 350.66c-14.81,90.8 -24.07,189.92 92.66,189.92 116.74,0 138.97,-99.12 153.8,-189.92l54.07 -346.26c1.93,-12.41 12.62,-21.56 25.18,-21.56l142.38 0z"/>
  <path class="fil0" d="M3664.52 2851.46l-18.03 115.09c-1.94,12.4 -12.63,21.54 -25.18,21.54l-546.61 0c-12.32,0 -19.28,-14.12 -11.81,-23.9l398.63 -520.87 -256.87 0c-9.12,0 -16.1,-8.14 -14.67,-17.16l18.03 -115.09c1.94,-12.4 12.62,-21.54 25.16,-21.54l526.31 0c12.3,0 19.28,14.09 11.82,23.88l-396.86 520.89 275.39 0c9.12,0 16.1,8.14 14.69,17.16z"/>
  <path class="fil1" d="M6232.09 847.33c-24.09,158.15 -144.86,158.15 -261.69,158.15l-66.47 0 46.62 -295.27c2.81,-17.85 18.2,-31 36.27,-31l30.49 0c79.5,0 154.63,0 193.34,45.31 23.19,27.12 30.18,67.28 21.44,122.82zm-50.86 -412.6l-440.57 0c-30.12,0 -55.77,21.92 -60.47,51.68l-178.13 1129.68c-3.53,22.29 13.71,42.44 36.27,42.44l226.04 0c21.09,0 39.04,-15.34 42.3,-36.18l50.54 -320.27c4.69,-29.74 30.32,-51.67 60.45,-51.67l139.43 0c290.19,0 457.66,-140.44 501.44,-418.79 19.72,-121.73 0.8,-217.39 -56.21,-284.35 -62.65,-73.62 -173.68,-112.55 -321.09,-112.55z"/>
  <path class="fil2" d="M3089.78 847.33c-24.08,158.15 -144.86,158.15 -261.66,158.15l-66.47 0 46.61 -295.27c2.84,-17.85 18.22,-31 36.27,-31l30.47 0c79.52,0 154.64,0 193.36,45.31 23.19,27.12 30.2,67.28 21.42,122.82zm-50.82 -412.6l-440.59 0c-30.11,0 -55.76,21.92 -60.43,51.68l-178.18 1129.68c-3.51,22.29 13.73,42.44 36.27,42.44l210.37 0c30.12,0 55.78,-21.92 60.45,-51.67l48.09 -304.77c4.68,-29.74 30.34,-51.67 60.46,-51.67l139.4 0c290.17,0 457.68,-140.44 501.46,-418.79 19.7,-121.73 0.78,-217.39 -56.23,-284.35 -62.65,-73.62 -173.71,-112.55 -321.07,-112.55z"/>
  <path class="fil2" d="M4061.75 1252.88c-20.37,120.54 -116.08,201.45 -238.13,201.45 -61.18,0 -110.16,-19.68 -141.64,-56.95 -31.22,-36.95 -42.96,-89.57 -33.07,-148.18 19,-119.48 116.22,-202.99 236.43,-202.99 59.9,0 108.54,19.86 140.65,57.49 32.31,37.87 45.01,90.86 35.75,149.18zm294.01 -410.62l-210.96 0c-18.08,0 -33.46,13.14 -36.27,31l-9.29 58.99 -14.75 -21.37c-45.67,-66.32 -147.49,-88.47 -249.16,-88.47 -233.07,0 -432.16,176.61 -470.92,424.34 -20.19,123.58 8.45,241.67 78.53,324.1 64.36,75.74 156.25,107.26 265.7,107.26 187.86,0 292.06,-120.69 292.06,-120.69l-9.44 58.63c-3.52,22.3 13.71,42.48 36.27,42.48l190 0c30.12,0 55.76,-21.91 60.46,-51.66l114.04 -722.17c3.52,-22.3 -13.71,-42.44 -36.27,-42.44z"/>
  <path class="fil1" d="M7204.04 1252.88c-20.37,120.54 -116.05,201.45 -238.1,201.45 -61.21,0 -110.18,-19.68 -141.68,-56.95 -31.21,-36.95 -42.95,-89.57 -33.05,-148.18 18.99,-119.48 116.22,-202.99 236.42,-202.99 59.9,0 108.54,19.86 140.65,57.49 32.31,37.87 44.99,90.86 35.75,149.18zm293.99 -410.62l-210.94 0c-18.08,0 -33.46,13.14 -36.29,31l-9.27 58.99 -14.74 -21.37c-45.7,-66.32 -147.52,-88.47 -249.2,-88.47 -233.05,0 -432.16,176.61 -470.92,424.34 -20.15,123.58 8.49,241.67 78.53,324.1 64.4,75.74 156.25,107.26 265.7,107.26 187.88,0 292.07,-120.69 292.07,-120.69l-9.4 58.63c-3.55,22.3 13.68,42.48 36.27,42.48l189.97 0c30.12,0 55.74,-21.91 60.46,-51.66l114.04 -722.17c3.51,-22.3 -13.71,-42.44 -36.29,-42.44z"/>
  <path class="fil2" d="M5479.35 842.26l-212.05 0c-20.26,0 -39.24,10.07 -50.63,26.84l-292.49 430.79 -123.98 -413.97c-7.73,-25.9 -31.58,-43.66 -58.61,-43.66l-208.46 0c-25.15,0 -42.87,24.76 -34.75,48.58l233.49 685.33 -219.62 309.87c-17.25,24.33 0.17,57.97 29.95,57.97l211.85 0c20.09,0 38.88,-9.85 50.33,-26.35l705.18 -1017.75c16.86,-24.35 -0.58,-57.65 -30.2,-57.65z"/>
  <path class="fil1" d="M7746.68 465.75l-180.81 1150.35c-3.51,22.28 13.73,42.43 36.28,42.43l181.87 0c30.12,0 55.76,-21.92 60.46,-51.67l178.28 -1129.69c0.33,-2.09 0.48,-4.17 0.45,-6.2 -0.22,-19.7 -16.28,-36.25 -36.75,-36.25l-203.5 0c-18.07,0 -33.45,13.16 -36.29,31.02z"/>
  <path class="fil1" d="M1495.48 493.9c23.72,-151.22 -0.17,-254.13 -81.95,-347.32 -90.05,-102.62 -252.75,-146.57 -460.9,-146.57l-604.19 0c-42.55,0 -78.77,30.95 -85.39,72.98l-251.61 1595.39c-0.46,2.95 -0.67,5.88 -0.64,8.76 0.31,27.81 23,51.19 51.87,51.19l373.01 0 -25.75 163.26c-4.34,27.54 16.94,52.44 44.82,52.44l314.41 0c37.21,0 68.9,-27.08 74.69,-63.84l3.08 -15.97 59.23 -375.58 3.82 -20.75c5.8,-36.77 37.48,-63.84 74.69,-63.84l47.03 0c304.58,0 543.09,-123.75 612.77,-481.62 29.12,-149.54 14.06,-274.37 -62.93,-362.11 -23.3,-26.54 -52.27,-48.49 -86.07,-66.4l0 0z"/>
  <path class="fil3" d="M1495.48 493.9c23.72,-151.22 -0.17,-254.13 -81.95,-347.32 -90.05,-102.62 -252.75,-146.57 -460.9,-146.57l-604.19 0c-42.55,0 -78.77,30.95 -85.39,72.98l-251.61 1595.39c-0.46,2.95 -0.67,5.88 -0.64,8.76 0.31,27.81 23,51.19 51.87,51.19l373.01 0 93.7 -594.14 -2.92 18.62c6.63,-42.01 42.54,-72.96 85.09,-72.96l177.28 0c348.18,0 620.8,-141.46 700.47,-550.54 2.35,-12.11 4.36,-23.85 6.17,-35.38z"/>
  <path class="fil2" d="M630.04 495.91c3.99,-25.28 20.21,-45.97 42.05,-56.44 9.93,-4.76 21.02,-7.41 32.64,-7.41l473.62 0c56.11,0 108.42,3.67 156.25,11.38 13.67,2.19 26.97,4.73 39.88,7.6 12.92,2.87 25.46,6.07 37.6,9.63 6.07,1.77 12.04,3.63 17.92,5.58 23.47,7.79 45.34,17 65.46,27.65 23.72,-151.22 -0.17,-254.13 -81.95,-347.32 -90.05,-102.62 -252.75,-146.57 -460.9,-146.57l-604.19 0c-42.55,0 -78.77,30.95 -85.39,72.98l-251.61 1595.39c-0.46,2.95 -0.67,5.88 -0.64,8.76 0.31,27.81 23,51.19 51.87,51.19l373.01 0 93.7 -594.14 100.65 -638.26z"/>
 </g>
</svg>
